<?xml version="1.0" encoding="UTF-8"?>
<svg version="1.1" xmlns="http://www.w3.org/2000/svg" width="600" height="195">
<path d="M0 0 C9.57 0 19.14 0 29 0 C37.30530171 17.53826525 45.55322194 35.09680714 53.54278564 52.78149414 C56.99932261 60.43241064 60.48280722 68.0682591 64.05078125 75.66796875 C64.37943176 76.3684433 64.70808228 77.06891785 65.04669189 77.7906189 C66.62052001 81.14217009 68.19959505 84.49112975 69.78564453 87.83691406 C70.61684814 89.60180176 70.61684814 89.60180176 71.46484375 91.40234375 C71.955896 92.43866943 72.44694824 93.47499512 72.95288086 94.54272461 C74 97 74 97 74 99 C74.66 99 75.32 99 76 99 C76.25917709 98.16829033 76.25917709 98.16829033 76.52359009 97.31977844 C78.25210021 91.93555525 80.31073891 86.87848311 82.7734375 81.79296875 C83.1334938 81.03817734 83.49355011 80.28338593 83.86451721 79.50572205 C84.63275055 77.89655335 85.40329577 76.2884866 86.17599487 74.68145752 C87.80777786 71.28731236 89.42783031 67.8876148 91.04838562 64.48809814 C91.86727112 62.77035106 92.68669814 61.05286201 93.50666809 59.33563232 C97.02996966 51.95329011 100.49941962 44.54741764 103.9375 37.125 C104.44933838 36.02019287 104.96117676 34.91538574 105.48852539 33.77709961 C110.68943265 22.53200766 115.84729655 11.26724487 121 0 C130.57 0 140.14 0 150 0 C150 48.84 150 97.68 150 148 C142.41 148 134.82 148 127 148 C124.88892796 145.88892796 125.81387506 141.17737627 125.79467773 138.25756836 C125.78477814 137.3405867 125.77487854 136.42360504 125.76467896 135.47883606 C125.73296351 132.43253201 125.70826701 129.38621233 125.68359375 126.33984375 C125.66303288 124.23376549 125.64203666 122.12769144 125.62062073 120.0216217 C125.56531043 114.46661782 125.5159408 108.91157615 125.46777344 103.35650635 C125.41762365 97.69271464 125.36190362 92.02897809 125.30664062 86.36523438 C125.19894955 75.24353666 125.09752906 64.12179114 125 53 C122.20826336 59.04814479 119.41660122 65.09632396 116.625 71.14453125 C116.00591766 72.48581557 116.00591766 72.48581557 115.37432861 73.85419655 C110.7060963 83.96837956 106.03844169 94.08282582 101.375 104.19921875 C100.27054393 106.59449908 99.16604173 108.98975813 98.06152344 111.38500977 C97.32499428 112.98257335 96.5886813 114.58023661 95.85253906 116.17797852 C94.7356109 118.6019954 93.61788584 121.0256434 92.5 123.44921875 C92.17306152 124.15930588 91.84612305 124.86939301 91.50927734 125.60099792 C90.67766476 127.40289448 89.83921325 129.20163079 89 131 C88.6390625 131.79510986 88.278125 132.59021973 87.90625 133.40942383 C87 135 87 135 85 136 C81.71503271 136.29079381 78.42135287 136.27782588 75.125 136.3125 C74.21363281 136.34150391 73.30226563 136.37050781 72.36328125 136.40039062 C71.48285156 136.40876953 70.60242188 136.41714844 69.6953125 136.42578125 C68.4889917 136.44765503 68.4889917 136.44765503 67.25830078 136.4699707 C64.07381226 135.80725282 63.02055042 134.52549361 61 132 C59.40698242 129.02441406 59.40698242 129.02441406 57.85546875 125.515625 C57.56879333 124.87540405 57.28211792 124.23518311 56.98675537 123.57556152 C56.36857011 122.1927122 55.75445506 120.80803756 55.14401245 119.42175293 C53.50487441 115.70010473 51.83590863 111.99181562 50.171875 108.28125 C49.82974472 107.51601013 49.48761444 106.75077026 49.13511658 105.96234131 C45.49995509 97.8457368 41.72868203 89.79463584 37.9375 81.75 C37.02492696 79.81220832 36.11245577 77.87436895 35.20025635 75.93640137 C34.4078124 74.25370171 33.61400425 72.57164468 32.82006836 70.88964844 C30.1815898 65.27458652 27.59616039 59.63470988 25 54 C24.98969254 55.16289047 24.97938507 56.32578094 24.96876526 57.52391052 C24.87120967 68.45774909 24.768493 79.39152846 24.66066074 90.32527065 C24.60538443 95.9470513 24.55195704 101.56883709 24.50268555 107.19067383 C24.45511128 112.61122899 24.40277126 118.0317187 24.34705925 123.45219612 C24.32660415 125.52513064 24.30789642 127.59808314 24.29092598 129.67104912 C24.26695154 132.56388758 24.23688787 135.45660109 24.20532227 138.34936523 C24.1995668 139.21538864 24.19381134 140.08141205 24.18788147 140.97367859 C24.11405216 146.88594784 24.11405216 146.88594784 23 148 C15.41 148 7.82 148 0 148 C0 99.16 0 50.32 0 0 Z " fill="#FFFFFF" transform="translate(308,24)"/>
<path d="M0 0 C6.40704018 5.38918415 6.40704018 5.38918415 7.765625 9.7109375 C7.81640625 12.69140625 7.81640625 12.69140625 6.55859375 14.8515625 C5.94242188 15.47933594 5.32625 16.10710938 4.69140625 16.75390625 C4.03914062 17.42550781 3.386875 18.09710938 2.71484375 18.7890625 C2.08835937 19.41683594 1.461875 20.04460938 0.81640625 20.69140625 C-0.42109375 22.17640625 -0.42109375 22.17640625 -1.68359375 23.69140625 C-4.18359375 25.69140625 -4.18359375 25.69140625 -7.55859375 26.37890625 C-11.79941115 25.5746133 -13.08491635 24.27810567 -16.125 21.4140625 C-25.02585676 13.96571747 -38.24558891 9.91810513 -49.8125 10.40625 C-64.11432087 12.12623834 -75.36122754 17.01935438 -85.18359375 27.69140625 C-94.49562142 40.24066243 -98.21477594 54.69920824 -96.71484375 70.17578125 C-94.62884029 83.98021592 -88.49386843 97.07232233 -77.18359375 105.69140625 C-63.4964472 113.87780832 -50.50814898 116.78187012 -34.62109375 113.56640625 C-26.85553017 111.5943494 -19.8348476 108.12557548 -13.18359375 103.69140625 C-12.67454991 101.27569495 -12.67454991 101.27569495 -12.671875 98.46484375 C-12.61870117 96.91796875 -12.61870117 96.91796875 -12.56445312 95.33984375 C-12.54189453 94.25960937 -12.51933594 93.179375 -12.49609375 92.06640625 C-12.46193359 90.9784375 -12.42777344 89.89046875 -12.39257812 88.76953125 C-12.30991041 86.07692562 -12.24082288 83.38465334 -12.18359375 80.69140625 C-13.05161621 80.7071167 -13.91963867 80.72282715 -14.81396484 80.73901367 C-18.03057662 80.7901018 -21.24698188 80.82773652 -24.46386719 80.85620117 C-25.85683997 80.87129983 -27.24976513 80.89178069 -28.64257812 80.91772461 C-30.6430226 80.95405747 -32.64381202 80.96951817 -34.64453125 80.984375 C-35.84899902 81.00008545 -37.0534668 81.0157959 -38.29443359 81.03198242 C-39.24785645 80.91959229 -40.2012793 80.80720215 -41.18359375 80.69140625 C-43.22235301 77.63326735 -43.43849514 76.98080616 -43.44921875 73.53125 C-43.45308594 72.34112305 -43.45308594 72.34112305 -43.45703125 71.12695312 C-43.44929688 70.30259766 -43.4415625 69.47824219 -43.43359375 68.62890625 C-43.44519531 67.38657227 -43.44519531 67.38657227 -43.45703125 66.11914062 C-43.45445312 65.32701172 -43.451875 64.53488281 -43.44921875 63.71875 C-43.44696289 62.99421631 -43.44470703 62.26968262 -43.44238281 61.52319336 C-43.18359375 59.69140625 -43.18359375 59.69140625 -41.18359375 57.69140625 C-38.93772888 57.44416809 -38.93772888 57.44416809 -36.10717773 57.44848633 C-35.04945663 57.4454097 -33.99173553 57.44233307 -32.90196228 57.43916321 C-31.18318626 57.44994148 -31.18318626 57.44994148 -29.4296875 57.4609375 C-28.25849869 57.46139572 -27.08730988 57.46185394 -25.88063049 57.46232605 C-23.40161121 57.46535109 -20.92259388 57.47324486 -18.44360352 57.4855957 C-14.63355839 57.50384654 -10.82375614 57.50610549 -7.01367188 57.50585938 C-4.61067497 57.51077454 -2.20767972 57.51660286 0.1953125 57.5234375 C1.34318741 57.52455032 2.49106232 57.52566315 3.67372131 57.52680969 C4.72829025 57.53318954 5.78285919 57.5395694 6.86938477 57.54614258 C8.26931419 57.55186028 8.26931419 57.55186028 9.69752502 57.55769348 C11.81640625 57.69140625 11.81640625 57.69140625 12.81640625 58.69140625 C12.95192503 60.42763594 13.01820751 62.16931942 13.05688477 63.91040039 C13.08263077 65.02568619 13.10837677 66.14097198 13.13490295 67.29005432 C13.21896622 72.42003681 13.28504352 77.54996882 13.33129883 82.68041992 C13.35796243 85.3843849 13.40655955 88.08656708 13.47485352 90.78979492 C13.56626019 94.68591507 13.60494934 98.5795307 13.6328125 102.4765625 C13.67096573 103.67894058 13.70911896 104.88131866 13.74842834 106.12013245 C13.73421614 112.28160239 13.37018883 115.88744838 8.94042969 120.38378906 C7.59889948 121.52642593 6.22684869 122.63500933 4.81640625 123.69140625 C3.89214844 124.39652344 2.96789062 125.10164062 2.015625 125.828125 C-19.05603176 138.83815258 -42.78441222 142.93915689 -67.24609375 138.56640625 C-79.94748909 135.52483043 -90.2310601 130.09444365 -100.18359375 121.69140625 C-100.8384375 121.15 -101.49328125 120.60859375 -102.16796875 120.05078125 C-113.58947934 109.67711567 -120.77115499 93.69901948 -123.18359375 78.69140625 C-123.29445312 78.01207031 -123.4053125 77.33273438 -123.51953125 76.6328125 C-126.68192555 53.34220585 -121.44487449 30.22555755 -107.37890625 11.2578125 C-81.61181721 -19.58785218 -31.88931206 -23.12464224 0 0 Z " fill="#FFFFFF" transform="translate(276.18359375,35.30859375)"/>
<path d="M0 0 C1.00023193 0.00523682 2.00046387 0.01047363 3.03100586 0.01586914 C4.00303955 0.0183667 4.97507324 0.02086426 5.9765625 0.0234375 C7.84235962 0.03709351 7.84235962 0.03709351 9.74584961 0.05102539 C11.87532372 0.0625135 14.0047998 0.07363977 16.13427734 0.08447266 C17.18163559 0.08995621 18.22899384 0.09543976 19.30809021 0.10108948 C20.09192581 0.10519333 20.87576141 0.10929718 21.68334961 0.11352539 C30.32838185 22.63536485 38.87503725 45.19229219 47.33441162 67.78448486 C48.18279679 70.04954943 49.03182257 72.31437273 49.88110352 74.57910156 C50.16106674 75.32568213 50.44102997 76.07226269 50.72947693 76.8414669 C51.29538725 78.35048263 51.86135614 79.8594764 52.42738342 81.36844826 C53.82997741 85.10895217 55.2298523 88.85043353 56.62402344 92.59408569 C59.21951792 99.55985625 61.83055776 106.51803939 64.50782013 113.45287609 C65.74759634 116.66924553 66.97532372 119.89014595 68.2016449 123.11166573 C68.78732804 124.64076315 69.37865269 126.16771326 69.97596741 127.69230461 C70.80254023 129.80342544 71.60911135 131.9212332 72.41186523 134.04150391 C72.87580688 135.24162613 73.33974854 136.44174835 73.81774902 137.67823792 C74.68334961 141.11352539 74.68334961 141.11352539 73.68334961 148.11352539 C65.76334961 148.11352539 57.84334961 148.11352539 49.68334961 148.11352539 C46.0944661 139.66947955 42.761125 131.16828907 39.60644531 122.55566406 C38.85952604 120.52016652 38.10457474 118.48775646 37.34936523 116.45532227 C36.8703638 115.15276644 36.39183004 113.85003851 35.91381836 112.54711914 C35.48480225 111.38237061 35.05578613 110.21762207 34.61376953 109.01757812 C33.68334961 106.11352539 33.68334961 106.11352539 33.68334961 103.11352539 C17.84334961 103.44352539 2.00334961 103.77352539 -14.31665039 104.11352539 C-19.16745928 117.46997219 -19.16745928 117.46997219 -24.00952148 130.82958984 C-24.61939344 132.50377756 -25.22956203 134.17785727 -25.84008789 135.85180664 C-26.15373291 136.72172241 -26.46737793 137.59163818 -26.79052734 138.48791504 C-27.09482666 139.3199646 -27.39912598 140.15201416 -27.71264648 141.00927734 C-28.10569473 142.09182549 -28.10569473 142.09182549 -28.50668335 143.19624329 C-29.31665039 145.11352539 -29.31665039 145.11352539 -31.31665039 148.11352539 C-33.63916016 148.4699707 -33.63916016 148.4699707 -36.50805664 148.44165039 C-37.53479492 148.43649414 -38.5615332 148.43133789 -39.61938477 148.42602539 C-40.69510742 148.40540039 -41.77083008 148.38477539 -42.87915039 148.36352539 C-44.49853516 148.35579102 -44.49853516 148.35579102 -46.15063477 148.34790039 C-54.16285079 148.26732499 -54.16285079 148.26732499 -55.31665039 147.11352539 C-55.76495311 140.79074467 -54.63620078 136.20837708 -52.32836914 130.36352539 C-52.00216583 129.50493927 -51.67596252 128.64635315 -51.33987427 127.76174927 C-50.23993713 124.87427484 -49.12181419 121.9941797 -48.00415039 119.11352539 C-47.21384846 117.04752328 -46.42507602 114.98093555 -45.63769531 112.91381836 C-44.34081926 109.51013055 -43.04268819 106.10695953 -41.73988342 102.70553589 C-37.89894949 92.67383014 -34.11924906 82.6198091 -30.35571289 72.55883789 C-29.90867602 71.36409977 -29.90867602 71.36409977 -29.45260811 70.14522552 C-27.94313031 66.1108914 -26.43413719 62.07637623 -24.92544556 58.04174805 C-10.74601362 20.1240742 -10.74601362 20.1240742 -6.07836914 8.04321289 C-5.80185013 7.32344269 -5.52533112 6.60367249 -5.24043274 5.86209106 C-3.01421282 0.14770882 -3.01421282 0.14770882 0 0 Z M8.68334961 37.11352539 C6.54491535 43.07587205 4.40892236 49.03908905 2.2746582 55.00292969 C1.54768728 57.03340663 0.82014905 59.06368054 0.09204102 61.09375 C-0.95191814 64.00476264 -1.99386251 66.91648945 -3.03540039 69.82836914 C-3.36350708 70.74190659 -3.69161377 71.65544403 -4.02966309 72.59666443 C-4.32997437 73.43746048 -4.63028564 74.27825653 -4.93969727 75.14453125 C-5.20617065 75.88843613 -5.47264404 76.632341 -5.74719238 77.39878845 C-6.36917891 78.97056089 -6.36917891 78.97056089 -6.31665039 80.11352539 C3.91334961 80.11352539 14.14334961 80.11352539 24.68334961 80.11352539 C22.11967823 70.71285409 22.11967823 70.71285409 19.05444336 61.54711914 C18.7016909 60.57875877 18.7016909 60.57875877 18.34181213 59.59083557 C17.8525286 58.25178711 17.36099001 56.91356046 16.8671875 55.57617188 C16.11146537 53.52556178 15.36682381 51.47114034 14.62280273 49.41625977 C14.14233653 48.10547313 13.66124049 46.79491716 13.17944336 45.48461914 C12.74817139 44.30826904 12.31689941 43.13191895 11.87255859 41.91992188 C10.85862989 39.03868799 10.85862989 39.03868799 8.68334961 37.11352539 Z " fill="#FFFFFF" transform="translate(523.316650390625,23.886474609375)"/>
<path d="M0 0 C5.93208948 4.57430011 9.81413474 11.09311323 13.1328125 17.73046875 C13.26696722 20.40283085 13.17599791 23.05297363 13.1328125 25.73046875 C11.36283776 26.54483743 9.59180098 27.35689815 7.8203125 28.16796875 C6.34111328 28.84666016 6.34111328 28.84666016 4.83203125 29.5390625 C0.30915356 31.53541228 -2.93154307 32.62050299 -7.8671875 31.73046875 C-10.12360111 29.39869358 -11.96742021 26.90556236 -13.87890625 24.28515625 C-17.13166319 20.10577897 -20.80269628 17.41863249 -25.8671875 15.73046875 C-32.75459316 14.98423119 -38.14119643 15.7103734 -43.8671875 19.73046875 C-47.73853041 23.20475085 -48.63659428 26.4917478 -48.953125 31.53125 C-48.75470199 36.60907515 -46.15810896 39.68861227 -42.6796875 43.10546875 C-37.12304885 47.72924105 -30.54276793 50.56825805 -24.06982422 53.66699219 C-7.7265354 61.5578552 7.77435195 69.3566612 14.38671875 87.35546875 C17.86474061 98.42686818 16.82928005 111.4431436 11.9453125 121.91796875 C5.91383613 132.98151989 -2.76769732 139.47452901 -14.76171875 143.1875 C-28.59001865 146.75361074 -44.74288712 146.04775934 -57.5546875 139.54296875 C-68.11609863 133.1334167 -75.5499869 124.58450331 -79.51953125 112.87109375 C-79.97314813 110.07803702 -79.86647514 108.39523578 -78.8671875 105.73046875 C-73.05330113 101.52586613 -66.07977136 98.59933086 -58.8671875 98.73046875 C-56.27208432 100.76533874 -55.05211358 103.11753846 -53.6171875 106.04296875 C-50.21339329 112.2731278 -46.12030995 116.11807727 -39.4296875 118.60546875 C-31.04004582 120.97214132 -24.47494195 119.88505806 -16.8671875 115.73046875 C-12.85768842 111.82120715 -11.11822044 107.94792638 -10.4921875 102.41796875 C-11.09313873 96.50861496 -13.32901632 91.88357942 -17.6171875 87.73046875 C-22.98551314 83.49950024 -29.43512325 80.81140947 -35.55810547 77.84863281 C-66.71007856 62.76341007 -66.71007856 62.76341007 -72.8671875 47.73046875 C-73.22941406 46.86292969 -73.59164062 45.99539062 -73.96484375 45.1015625 C-76.60263044 35.24697412 -76.54337949 21.42586684 -72.31640625 12.08203125 C-66.13128959 2.04580422 -57.65815162 -4.76502889 -46.3671875 -8.14453125 C-29.83949048 -11.72730944 -14.02705377 -9.53722275 0 0 Z " fill="#FFFFFF" transform="translate(81.8671875,30.26953125)"/>
<path d="M0 0 C7.92 0 15.84 0 24 0 C25.7619502 1.7619502 25.12614518 4.26684102 25.12698364 6.65625 C25.12980347 7.884646 25.13262329 9.11304199 25.13552856 10.37866211 C25.13358397 11.75244155 25.13153578 13.12622085 25.12939453 14.5 C25.13074853 15.93693079 25.13252846 17.37386123 25.13470459 18.81079102 C25.13927906 22.72390589 25.13748931 26.63699451 25.1343255 30.55010986 C25.13180197 34.6362719 25.13413942 38.72243163 25.13571167 42.80859375 C25.13753339 49.67187912 25.13512701 56.53515375 25.13037109 63.3984375 C25.12492847 71.34472006 25.12669112 79.29097697 25.1321975 87.23725891 C25.13672857 94.04743164 25.13737921 100.85759663 25.13475883 107.66777039 C25.13319602 111.74059469 25.13300239 115.81340693 25.13629532 119.88623047 C25.13917395 123.71435757 25.13719849 127.54245145 25.13140106 131.37057495 C25.13007342 132.77953028 25.13046765 134.18848838 25.13266373 135.59744263 C25.13537504 137.51287743 25.13138058 139.42831832 25.12698364 141.34375 C25.12660662 142.41818359 25.12622959 143.49261719 25.12584114 144.59960938 C25 147 25 147 24 148 C16.08 148 8.16 148 0 148 C0 99.16 0 50.32 0 0 Z " fill="#FFFFFF" transform="translate(113,24)"/>
</svg>
